<svg xmlns="http://www.w3.org/2000/svg" width="20" height="13.81"><path d="M16 2.28a.1.1 0 01-.038-.03 3.636 3.636 0 00-2.637-.94l-.031-.07h.019a3.2 3.2 0 001.62-.63.2.2 0 00-.211-.3 5.85 5.85 0 00-1.266.29q.72-.435.561-.6a2.523 2.523 0 00-1.521.69.753.753 0 00.224-.52 3.959 3.959 0 00-.673.53 10.371 10.371 0 00-.979 1.19l-.012.03a10.225 10.225 0 00-1.36 2.98l-.1.07-.019.02a4.966 4.966 0 00-1.4-1.15 17.009 17.009 0 00-2.308-1.16 19.843 19.843 0 00-2.936-1.16 2.763 2.763 0 001.615 2.49v.02a3.411 3.411 0 00-1.1.15q.1 1.455 2.182 2.01l-.006.02a1.638 1.638 0 00-1.34.52 2.431 2.431 0 002.425 1.21 1.575 1.575 0 00-.53.37.737.737 0 00-.212.74 1.354 1.354 0 001.359.6l.038.04c-.007.01-.013.01-.019.02a5.213 5.213 0 01-4.134 1.51l-.025.01A5.372 5.372 0 01.007 9.89a9.782 9.782 0 004.551 3.39 11.389 11.389 0 006.465.14h.038a10.2 10.2 0 005.317-3.5 6.889 6.889 0 001.266-2.66 2.665 2.665 0 002.363-.89l-.012-.02a4.945 4.945 0 01-2.127-.12v-.11h.007c1.154-.12 1.833-.47 2.051-1.06a3.371 3.371 0 01-2.382.03A4.77 4.77 0 0016 2.28z" fill="#c6cacc" fill-rule="evenodd"/></svg>