<svg xmlns="http://www.w3.org/2000/svg" width="16" height="16"><path d="M8.6 7.22v-.03l-.016.03H8.6zM14.813 0H1.182A1.163 1.163 0 000 1.15v13.7A1.163 1.163 0 001.182 16h13.635A1.163 1.163 0 0016 14.85V1.15A1.163 1.163 0 0014.817 0zM4.846 13.39H2.429V6.17h2.417v7.22zM3.638 5.18h-.016a1.381 1.381 0 11.02 0zm9.922 8.21h-2.417V9.53c0-.97-.349-1.64-1.224-1.64a1.326 1.326 0 00-1.24.88 1.661 1.661 0 00-.079.59v4.03H6.183s.032-6.54 0-7.22H8.6v1.02A2.4 2.4 0 0110.778 6c1.59 0 2.782 1.03 2.782 3.25v4.14z" fill="#c6cacc" fill-rule="evenodd"/></svg>